<svg width="70" height="70" viewBox="0 0 70 70" fill="none" xmlns="http://www.w3.org/2000/svg">
<path d="M57.2358 14.6072C54.4715 11.815 51.179 9.60115 47.5503 8.09477C43.9215 6.58839 40.0291 5.81962 36.1001 5.83331C19.6378 5.83331 6.2207 19.2504 6.2207 35.7127C6.2207 40.9891 7.60763 46.1147 10.2006 50.6373L5.97949 66.1348L21.8086 61.974C26.1805 64.3559 31.0951 65.6222 36.1001 65.6222C52.5624 65.6222 65.9795 52.2052 65.9795 35.7429C65.9795 27.7529 62.874 20.2454 57.2358 14.6072ZM36.1001 60.5569C31.6378 60.5569 27.2659 59.3509 23.4368 57.0896L22.5323 56.5469L13.1252 59.0192L15.6277 49.8534L15.0247 48.9187C12.5456 44.9598 11.2292 40.3838 11.2257 35.7127C11.2257 22.0243 22.3815 10.8685 36.0699 10.8685C42.7031 10.8685 48.9443 13.4615 53.6177 18.165C55.9317 20.4684 57.7655 23.2082 59.0128 26.2255C60.2602 29.2429 60.8962 32.4779 60.884 35.7429C60.9443 49.4313 49.7885 60.5569 36.1001 60.5569ZM49.7282 41.9841C48.9745 41.6222 45.2961 39.8132 44.6328 39.5419C43.9393 39.3006 43.4569 39.18 42.9443 39.9037C42.4318 40.6574 41.0147 42.3459 40.5926 42.8283C40.1704 43.3408 39.7182 43.4011 38.9644 43.0092C38.2106 42.6474 35.7986 41.8333 32.9644 39.3006C30.7333 37.3107 29.2559 34.8685 28.8036 34.1147C28.3815 33.3609 28.7433 32.969 29.1353 32.577C29.4669 32.2454 29.889 31.7027 30.2508 31.2805C30.6127 30.8584 30.7634 30.5268 31.0046 30.0444C31.2458 29.5318 31.1252 29.1097 30.9443 28.7479C30.7634 28.3861 29.2559 24.7077 28.6529 23.2001C28.0498 21.7529 27.4167 21.9338 26.9644 21.9037H25.5172C25.0046 21.9037 24.2207 22.0846 23.5272 22.8383C22.8639 23.5921 20.9343 25.4011 20.9343 29.0795C20.9343 32.7579 23.6177 36.3157 23.9795 36.7981C24.3413 37.3107 29.2559 44.8484 36.7333 48.0745C38.5122 48.8584 39.8991 49.3107 40.9845 49.6424C42.7634 50.2152 44.3916 50.1248 45.688 49.9439C47.1353 49.7328 50.1202 48.1348 50.7232 46.3861C51.3564 44.6373 51.3564 43.1599 51.1453 42.8283C50.9343 42.4966 50.482 42.3459 49.7282 41.9841Z" fill="#949494"/>
</svg>
