<svg width="60" height="60" viewBox="0 0 60 60" fill="currentColor" xmlns="http://www.w3.org/2000/svg">
<path fill-rule="evenodd" clip-rule="evenodd" d="M30 5C16.1925 5 5 16.1925 5 30C5 43.8075 16.1925 55 30 55C43.8075 55 55 43.8075 55 30C55 16.1925 43.8075 5 30 5ZM0 30C0 13.4312 13.4312 0 30 0C46.5687 0 60 13.4312 60 30C60 46.5687 46.5687 60 30 60C13.4312 60 0 46.5687 0 30Z"/>
<path fill-rule="evenodd" clip-rule="evenodd" d="M23.9792 56.84C23.7379 56.5275 23.7379 53.7463 23.9792 48.4975C21.3892 48.5875 19.7542 48.4075 19.0704 47.9588C18.0467 47.285 17.0204 45.2088 16.1117 43.745C15.2017 42.2825 13.1829 42.05 12.3679 41.7225C11.5529 41.3963 11.3479 40.0625 14.6142 41.07C17.8804 42.0788 18.0392 44.8263 19.0704 45.4675C20.1017 46.11 22.5654 45.83 23.6817 45.315C24.7979 44.8 24.7154 42.885 24.9154 42.1263C25.1667 41.4175 24.2792 41.26 24.2604 41.255C23.1692 41.255 17.4429 40.0088 15.8692 34.4638C14.2967 28.9175 16.3229 25.2925 17.4042 23.7338C18.1242 22.6963 18.0604 20.4813 17.2129 17.0925C20.2917 16.6988 22.6692 17.6675 24.3417 20C24.3442 20.0125 26.5367 18.6963 30.0004 18.6963C33.4654 18.6963 34.6942 19.7688 35.6429 20C36.5929 20.2313 37.3504 15.9175 43.2092 17.0925C41.9854 19.4963 40.9617 22.5 41.7429 23.735C42.5254 24.9688 45.5929 28.8938 43.7092 34.4638C42.4517 38.1763 39.9817 40.44 36.2979 41.255C35.8767 41.39 35.6654 41.6075 35.6654 41.9075C35.6654 42.3575 36.2354 42.4063 37.0579 44.515C37.6079 45.92 37.6467 49.935 37.1779 56.5588C35.9892 56.8613 35.0642 57.065 34.4029 57.1688C33.2317 57.3525 31.9592 57.4562 30.7092 57.495C29.4592 57.535 29.0254 57.5312 27.2967 57.37C26.1801 57.2687 25.0717 57.0916 23.9792 56.84Z"/>
</svg>
