<svg width="70" height="70" viewBox="0 0 70 70" fill="none" xmlns="http://www.w3.org/2000/svg">
<path d="M50.833 39.2234V50.3144H44.404V39.9644C44.404 37.3664 43.474 35.5934 41.146 35.5934C39.37 35.5934 38.311 36.7874 37.846 37.9454C37.678 38.3594 37.633 38.9354 37.633 39.5114V50.3144H31.201C31.201 50.3144 31.288 32.7884 31.201 30.9734H37.633V33.7124L37.591 33.7754H37.633V33.7124C38.488 32.3924 40.012 30.5174 43.429 30.5174C47.659 30.5174 50.833 33.2834 50.833 39.2234ZM24.472 21.6464C22.273 21.6464 20.833 23.0924 20.833 24.9884C20.833 26.8484 22.231 28.3334 24.388 28.3334H24.43C26.674 28.3334 28.069 26.8454 28.069 24.9884C28.027 23.0924 26.674 21.6464 24.472 21.6464ZM21.214 50.3144H27.646V30.9734H21.214V50.3144Z" fill="#949494"/>
<path d="M35.833 59.8334C42.1982 59.8334 48.3027 57.3048 52.8036 52.8039C57.3044 48.3031 59.833 42.1986 59.833 35.8334C59.833 29.4682 57.3044 23.3637 52.8036 18.8628C48.3027 14.3619 42.1982 11.8334 35.833 11.8334C29.4678 11.8334 23.3633 14.3619 18.8624 18.8628C14.3616 23.3637 11.833 29.4682 11.833 35.8334C11.833 42.1986 14.3616 48.3031 18.8624 52.8039C23.3633 57.3048 29.4678 59.8334 35.833 59.8334ZM35.833 65.8334C19.264 65.8334 5.83301 52.4024 5.83301 35.8334C5.83301 19.2644 19.264 5.83337 35.833 5.83337C52.402 5.83337 65.833 19.2644 65.833 35.8334C65.833 52.4024 52.402 65.8334 35.833 65.8334Z" fill="#949494"/>
</svg>
