<svg width="70" height="70" viewBox="0 0 70 70" fill="none" xmlns="http://www.w3.org/2000/svg">
<path d="M35.833 59.8333C42.1982 59.8333 48.3027 57.3047 52.8036 52.8039C57.3044 48.303 59.833 42.1985 59.833 35.8333C59.833 29.4681 57.3044 23.3636 52.8036 18.8628C48.3027 14.3619 42.1982 11.8333 35.833 11.8333C29.4678 11.8333 23.3633 14.3619 18.8624 18.8628C14.3616 23.3636 11.833 29.4681 11.833 35.8333C11.833 42.1985 14.3616 48.303 18.8624 52.8039C23.3633 57.3047 29.4678 59.8333 35.833 59.8333ZM35.833 65.8333C19.264 65.8333 5.83301 52.4023 5.83301 35.8333C5.83301 19.2643 19.264 5.83331 35.833 5.83331C52.402 5.83331 65.833 19.2643 65.833 35.8333C65.833 52.4023 52.402 65.8333 35.833 65.8333Z" fill="#949494"/>
<path d="M50.833 26.6743C49.729 27.1543 48.544 27.4843 47.299 27.6283C48.571 26.8783 49.543 25.6903 50.005 24.2773C48.7929 24.9837 47.4704 25.4806 46.093 25.7473C45.5136 25.14 44.8166 24.6571 44.0445 24.328C43.2724 23.999 42.4413 23.8306 41.602 23.8333C38.203 23.8333 35.449 26.5483 35.449 29.8933C35.449 30.3673 35.503 30.8293 35.608 31.2733C33.17 31.1575 30.7829 30.5348 28.599 29.4449C26.415 28.355 24.4823 26.8219 22.924 24.9433C22.3767 25.8646 22.0885 26.9167 22.09 27.9883C22.09 30.0883 23.179 31.9483 24.829 33.0313C23.8523 33.0007 22.8966 32.7406 22.039 32.2723V32.3473C22.0483 33.7557 22.5454 35.1173 23.4458 36.2003C24.3461 37.2834 25.594 38.0209 26.977 38.2873C26.0691 38.5274 25.1191 38.5622 24.196 38.3893C24.5984 39.6009 25.368 40.6571 26.3981 41.4114C27.4281 42.1657 28.6675 42.5805 29.944 42.5983C27.7539 44.286 25.0649 45.1978 22.3 45.1903C21.805 45.1903 21.316 45.1603 20.833 45.1063C23.6544 46.8921 26.9259 47.838 30.265 47.8333C41.587 47.8333 47.776 38.5993 47.776 30.5893L47.755 29.8033C48.9619 28.9551 50.0048 27.8949 50.833 26.6743Z" fill="#949494"/>
</svg>
