<svg width="70" height="70" viewBox="0 0 70 70" fill="none" xmlns="http://www.w3.org/2000/svg">
<path d="M35.4688 5.46875C29.5353 5.46875 23.7351 7.22822 18.8017 10.5247C13.8682 13.8211 10.023 18.5065 7.75238 23.9882C5.48175 29.47 4.88765 35.502 6.0452 41.3215C7.20276 47.1409 10.06 52.4864 14.2556 56.6819C18.4511 60.8775 23.7966 63.7347 29.616 64.8923C35.4355 66.0499 41.4675 65.4558 46.9493 63.1851C52.431 60.9145 57.1164 57.0693 60.4128 52.1358C63.7093 47.2024 65.4688 41.4022 65.4688 35.4687C65.4599 27.515 62.2964 19.8895 56.6722 14.2653C51.048 8.64111 43.4225 5.47757 35.4688 5.46875ZM38.8021 58.5604V43.2465H44.3576C45.2417 43.2465 46.0895 42.8953 46.7147 42.2702C47.3398 41.6451 47.691 40.7972 47.691 39.9132C47.691 39.0291 47.3398 38.1813 46.7147 37.5562C46.0895 36.931 45.2417 36.5799 44.3576 36.5799H38.8021V31.0243C38.8021 30.1402 39.1533 29.2924 39.7784 28.6673C40.4035 28.0422 41.2514 27.691 42.1354 27.691H46.5799C47.4639 27.691 48.3118 27.3398 48.9369 26.7147C49.562 26.0895 49.9132 25.2417 49.9132 24.3576C49.9132 23.4736 49.562 22.6257 48.9369 22.0006C48.3118 21.3755 47.4639 21.0243 46.5799 21.0243H42.1354C39.4833 21.0243 36.9397 22.0779 35.0644 23.9532C33.189 25.8286 32.1354 28.3721 32.1354 31.0243V36.5799H26.5799C25.6958 36.5799 24.848 36.931 24.2228 37.5562C23.5977 38.1813 23.2465 39.0291 23.2465 39.9132C23.2465 40.7972 23.5977 41.6451 24.2228 42.2702C24.848 42.8953 25.6958 43.2465 26.5799 43.2465H32.1354V58.5604C26.2968 57.7177 20.9941 54.6947 17.2944 50.0999C13.5948 45.505 11.7729 39.6794 12.1953 33.7954C12.6178 27.9115 15.2533 22.4059 19.5714 18.3867C23.8894 14.3675 29.5696 12.1331 35.4688 12.1331C41.3679 12.1331 47.0481 14.3675 51.3662 18.3867C55.6843 22.4059 58.3197 27.9115 58.7422 33.7954C59.1646 39.6794 57.3427 45.505 53.6431 50.0999C49.9434 54.6947 44.6407 57.7177 38.8021 58.5604Z" fill="#949494"/>
</svg>
